<svg width="1200" height="630" viewBox="0 0 1200 630" fill="none" xmlns="http://www.w3.org/2000/svg">
  <rect width="1200" height="630" rx="40" fill="#F6F2EA"/>
  <rect x="48" y="48" width="1104" height="534" rx="32" fill="url(#bg)"/>
  <rect x="96" y="96" width="330" height="438" rx="28" fill="rgba(255,255,255,0.88)"/>
  <rect x="462" y="96" width="594" height="210" rx="28" fill="rgba(255,255,255,0.82)"/>
  <rect x="462" y="334" width="280" height="200" rx="28" fill="rgba(255,255,255,0.78)"/>
  <rect x="776" y="334" width="280" height="200" rx="28" fill="rgba(255,255,255,0.78)"/>
  <circle cx="174" cy="158" r="26" fill="#CA6A40"/>
  <circle cx="244" cy="158" r="26" fill="#3D93FF"/>
  <circle cx="314" cy="158" r="26" fill="#54C6B7"/>
  <rect x="126" y="228" width="210" height="18" rx="9" fill="#DDE5F2"/>
  <rect x="126" y="264" width="164" height="18" rx="9" fill="#E7EDF6"/>
  <rect x="126" y="324" width="262" height="132" rx="22" fill="url(#card)"/>
  <rect x="504" y="148" width="312" height="22" rx="11" fill="#D8E5FF"/>
  <rect x="504" y="190" width="458" height="18" rx="9" fill="#EEF3FC"/>
  <rect x="504" y="222" width="402" height="18" rx="9" fill="#EEF3FC"/>
  <rect x="504" y="374" width="200" height="18" rx="9" fill="#DDE5F2"/>
  <rect x="504" y="410" width="156" height="18" rx="9" fill="#EEF3FC"/>
  <rect x="818" y="374" width="168" height="18" rx="9" fill="#F7D7C8"/>
  <rect x="818" y="410" width="124" height="18" rx="9" fill="#FDEADB"/>
  <text x="124" y="204" fill="#0F172A" font-size="44" font-family="Segoe UI, Arial, sans-serif" font-weight="700">DocuHub</text>
  <text x="504" y="132" fill="#4B5563" font-size="22" font-family="Segoe UI, Arial, sans-serif">Research docs, discovery, and collaboration</text>
  <text x="124" y="506" fill="#334155" font-size="24" font-family="Segoe UI, Arial, sans-serif">Clean document flows and product-focused reading experience</text>
  <defs>
    <linearGradient id="bg" x1="85" y1="69" x2="1074" y2="562" gradientUnits="userSpaceOnUse">
      <stop stop-color="#FFF8F1"/>
      <stop offset="0.45" stop-color="#EEF4FF"/>
      <stop offset="1" stop-color="#F4FBF9"/>
    </linearGradient>
    <linearGradient id="card" x1="148" y1="339" x2="376" y2="454" gradientUnits="userSpaceOnUse">
      <stop stop-color="#54C6B7"/>
      <stop offset="1" stop-color="#3D93FF"/>
    </linearGradient>
  </defs>
</svg>
